<svg xmlns="http://www.w3.org/2000/svg" xmlns:xlink="http://www.w3.org/1999/xlink" width="24" height="24" viewBox="0 0 24 24">
  <defs>
    <path id="arrow-back-a" d="M19.9986,11 L6.4126,11 L10.7056,6.707 C11.0966,6.316 11.0966,5.684 10.7056,5.293 C10.3146,4.902 9.6826,4.902 9.2916,5.293 L3.2916,11.292 C3.1996,11.385 3.1266,11.496 3.0756,11.618 C2.9746,11.862 2.9746,12.138 3.0756,12.382 C3.1266,12.504 3.1996,12.615 3.2916,12.708 L9.2916,18.707 C9.4866,18.902 9.7426,19 9.9986,19 C10.2546,19 10.5106,18.902 10.7056,18.707 C11.0966,18.316 11.0966,17.684 10.7056,17.293 L6.4126,13 L19.9986,13 C20.5516,13 20.9986,12.552 20.9986,12 C20.9986,11.448 20.5516,11 19.9986,11"/>
  </defs>
  <g fill="none" fill-rule="evenodd">
    <mask id="arrow-back-b" fill="#fff">
      <use xlink:href="#arrow-back-a"/>
    </mask>
    <use fill="#000" xlink:href="#arrow-back-a"/>
    <g fill="#000" mask="url(#arrow-back-b)">
      <rect width="24" height="24"/>
    </g>
  </g>
</svg>
