<svg xmlns="http://www.w3.org/2000/svg" xmlns:xlink="http://www.w3.org/1999/xlink" width="24" height="24" viewBox="0 0 24 24">
  <defs>
    <path id="add-round-a" d="M20,11 L13,11 L13,4 C13,3.448 12.552,3 12,3 C11.448,3 11,3.448 11,4 L11,11 L4,11 C3.448,11 3,11.448 3,12 C3,12.552 3.448,13 4,13 L11,13 L11,20 C11,20.552 11.448,21 12,21 C12.552,21 13,20.552 13,20 L13,13 L20,13 C20.552,13 21,12.552 21,12 C21,11.448 20.552,11 20,11"/>
  </defs>
  <g fill="none" fill-rule="evenodd">
    <mask id="add-round-b" fill="#fff">
      <use xlink:href="#add-round-a"/>
    </mask>
    <use fill="#000" xlink:href="#add-round-a"/>
    <g fill="#000" mask="url(#add-round-b)">
      <rect width="24" height="24"/>
    </g>
  </g>
</svg>
