<svg xmlns="http://www.w3.org/2000/svg" xmlns:xlink="http://www.w3.org/1999/xlink" width="24" height="24" viewBox="0 0 24 24">
  <defs>
    <path id="eye-a" d="M12,10.0889 C10.897,10.0889 10,10.9859 10,12.0889 C10,13.1919 10.897,14.0889 12,14.0889 C13.103,14.0889 14,13.1919 14,12.0889 C14,10.9859 13.103,10.0889 12,10.0889 M12,7.0889 C16.573,7.0889 19.651,10.1339 20.763,11.4429 C21.079,11.8159 21.079,12.3629 20.763,12.7359 C19.652,14.0449 16.575,17.0889 12,17.0889 C7.423,17.0889 4.347,14.0449 3.237,12.7359 C2.921,12.3629 2.921,11.8159 3.237,11.4429 C4.348,10.1339 7.425,7.0889 12,7.0889 Z M12,15.0889 C10.346,15.0889 9,13.7429 9,12.0889 C9,10.4349 10.346,9.0889 12,9.0889 C13.654,9.0889 15,10.4349 15,12.0889 C15,13.7429 13.654,15.0889 12,15.0889 Z M12,8.0889 C7.807,8.0889 4.958,10.9609 4,12.0889 C4.957,13.2179 7.806,16.0889 12,16.0889 C16.193,16.0889 19.042,13.2189 20,12.0889 C19.042,10.9609 16.193,8.0889 12,8.0889 Z"/>
  </defs>
  <g fill="none" fill-rule="evenodd">
    <mask id="eye-b" fill="#fff">
      <use xlink:href="#eye-a"/>
    </mask>
    <use fill="#000" xlink:href="#eye-a"/>
    <g fill="#000" mask="url(#eye-b)">
      <rect width="24" height="24"/>
    </g>
  </g>
</svg>
