<svg xmlns="http://www.w3.org/2000/svg" xmlns:xlink="http://www.w3.org/1999/xlink" width="24" height="24" viewBox="0 0 24 24">
  <defs>
    <path id="chevron-down-a" d="M19.6582,7.2476 C19.2442,6.8836 18.6112,6.9256 18.2472,7.3416 L12.0002,14.4816 L5.7522,7.3416 C5.3882,6.9266 4.7572,6.8836 4.3412,7.2476 C3.9262,7.6116 3.8842,8.2426 4.2472,8.6586 L11.2472,16.6586 C11.2622,16.6756 11.2832,16.6806 11.2982,16.6956 C11.3152,16.7136 11.3232,16.7366 11.3412,16.7526 C11.3932,16.7986 11.4562,16.8226 11.5142,16.8556 C11.5522,16.8766 11.5842,16.9046 11.6232,16.9206 C11.7442,16.9696 11.8712,16.9996 11.9992,16.9996 L12.0002,16.9996 C12.1292,16.9996 12.2552,16.9696 12.3762,16.9206 C12.4162,16.9046 12.4482,16.8766 12.4862,16.8556 C12.5442,16.8226 12.6062,16.7986 12.6582,16.7526 C12.6772,16.7366 12.6842,16.7136 12.7012,16.6956 C12.7172,16.6806 12.7382,16.6756 12.7522,16.6586 L19.7532,8.6586 C20.1162,8.2426 20.0742,7.6116 19.6582,7.2476"/>
  </defs>
  <g fill="none" fill-rule="evenodd">
    <mask id="chevron-down-b" fill="#fff">
      <use xlink:href="#chevron-down-a"/>
    </mask>
    <use fill="#000" xlink:href="#chevron-down-a"/>
    <g fill="#000" mask="url(#chevron-down-b)">
      <rect width="24" height="24"/>
    </g>
  </g>
</svg>
