<svg xmlns="http://www.w3.org/2000/svg" xmlns:xlink="http://www.w3.org/1999/xlink" width="24" height="24" viewBox="0 0 24 24">
  <defs>
    <path id="gear-a" d="M13.7646,13.7642 C13.2626,14.2662 12.7016,14.5002 11.9996,14.5002 C11.2956,14.5002 10.7266,14.2742 10.2106,13.7892 C9.7256,13.2732 9.4996,12.7042 9.4996,12.0002 C9.4996,11.2982 9.7336,10.7372 10.2356,10.2362 C10.7376,9.7342 11.2986,9.5002 11.9996,9.5002 C12.7016,9.5002 13.2626,9.7342 13.7646,10.2362 C14.2666,10.7372 14.4996,11.2982 14.4996,12.0002 C14.4996,12.7022 14.2666,13.2632 13.7646,13.7642 M20.3973,13.8606 C20.6913,14.0446 20.8213,14.4056 20.7123,14.7346 C20.5483,15.2236 20.3503,15.7176 20.1253,16.2016 C19.9733,16.5256 19.6153,16.6956 19.2643,16.6126 C19.2603,16.6116 19.1633,16.5886 18.8433,16.5886 C18.2133,16.5886 17.6903,16.8036 17.2473,17.2466 C16.8973,17.5966 16.6943,17.9886 16.6273,18.4456 C16.5603,18.9706 16.5933,19.1916 16.6123,19.2616 C16.7003,19.6106 16.5283,19.9726 16.2023,20.1246 C15.7163,20.3516 15.2223,20.5486 14.7343,20.7116 C14.4063,20.8206 14.0453,20.6916 13.8613,20.3976 C13.7893,20.2826 13.6273,20.0876 13.2603,19.8136 C12.5523,19.2836 11.5363,19.2516 10.7213,19.8266 C10.3733,20.0876 10.2113,20.2826 10.1383,20.3976 C9.9983,20.6216 9.7563,20.7496 9.5033,20.7496 C9.4243,20.7496 9.3433,20.7376 9.2653,20.7116 C8.7763,20.5476 8.2823,20.3506 7.7983,20.1246 C7.4733,19.9726 7.3013,19.6126 7.3883,19.2646 C7.4053,19.1936 7.4393,18.9706 7.3713,18.4286 C7.3053,17.9886 7.1023,17.5966 6.7533,17.2466 C6.3093,16.8036 5.7873,16.5886 5.1563,16.5886 C4.8373,16.5886 4.7393,16.6116 4.7363,16.6126 C4.3903,16.6966 4.0263,16.5256 3.8753,16.2006 C3.6483,15.7136 3.4503,15.2206 3.2883,14.7346 C3.1783,14.4056 3.3083,14.0446 3.6023,13.8616 C3.7173,13.7886 3.9123,13.6266 4.1863,13.2616 C4.4543,12.8806 4.5913,12.4626 4.5913,11.9996 C4.5913,11.5146 4.4583,11.1016 4.1863,10.7396 C3.9123,10.3736 3.7173,10.2106 3.6023,10.1386 C3.3083,9.9546 3.1783,9.5946 3.2883,9.2656 C3.4503,8.7796 3.6483,8.2856 3.8753,7.7996 C4.0263,7.4736 4.3883,7.3016 4.7363,7.3886 C4.7393,7.3886 4.8373,7.4116 5.1563,7.4116 C5.7873,7.4116 6.3093,7.1966 6.7533,6.7526 C7.1023,6.4036 7.3053,6.0116 7.3743,5.5536 C7.4393,5.0296 7.4053,4.8066 7.3883,4.7356 C7.3013,4.3876 7.4733,4.0266 7.7993,3.8746 C8.2863,3.6476 8.7803,3.4506 9.2653,3.2886 C9.5933,3.1806 9.9543,3.3086 10.1383,3.6016 C10.2113,3.7176 10.3733,3.9116 10.7383,4.1856 C11.5193,4.7356 12.5523,4.7176 13.2603,4.1866 C13.6273,3.9116 13.7893,3.7176 13.8613,3.6016 C14.0453,3.3086 14.4063,3.1786 14.7343,3.2886 C15.2183,3.4496 15.7123,3.6466 16.2013,3.8746 C16.5273,4.0266 16.7003,4.3896 16.6123,4.7386 C16.5933,4.8086 16.5603,5.0296 16.6293,5.5706 C16.6943,6.0116 16.8973,6.4036 17.2473,6.7526 C17.6903,7.1966 18.2133,7.4116 18.8433,7.4116 C19.1633,7.4116 19.2603,7.3886 19.2643,7.3876 C19.6103,7.3026 19.9733,7.4736 20.1253,7.7986 C20.3503,8.2826 20.5483,8.7756 20.7123,9.2656 C20.8213,9.5946 20.6913,9.9556 20.3973,10.1396 C20.2823,10.2106 20.0883,10.3726 19.8143,10.7386 C19.5423,11.1016 19.4093,11.5146 19.4093,11.9996 C19.4093,12.4626 19.5463,12.8806 19.8263,13.2786 C20.0883,13.6266 20.2823,13.7886 20.3973,13.8606 Z M18.6133,14.1606 C18.1413,13.4936 17.9093,12.7726 17.9093,11.9996 C17.9093,11.1886 18.1463,10.4616 18.6143,9.8386 C18.7833,9.6126 18.9503,9.4196 19.1153,9.2576 C19.0713,9.1416 19.0253,9.0256 18.9763,8.9106 C18.9343,8.9106 18.8893,8.9116 18.8433,8.9116 C17.8093,8.9116 16.9153,8.5416 16.1863,7.8136 C15.6093,7.2376 15.2593,6.5516 15.1423,5.7746 C15.1063,5.4896 15.0883,5.2416 15.0883,5.0226 C14.9723,4.9746 14.8573,4.9286 14.7423,4.8846 C14.5803,5.0506 14.3863,5.2166 14.1613,5.3866 C12.9453,6.2986 11.1883,6.3396 9.8563,5.3986 C9.6203,5.2226 9.4233,5.0526 9.2583,4.8846 C9.1423,4.9286 9.0273,4.9746 8.9123,5.0226 C8.9123,5.2376 8.8943,5.4806 8.8603,5.7576 C8.7403,6.5526 8.3893,7.2376 7.8133,7.8136 C7.0853,8.5416 6.1913,8.9116 5.1563,8.9116 C5.1103,8.9116 5.0663,8.9106 5.0233,8.9106 C4.9753,9.0266 4.9283,9.1416 4.8843,9.2576 C5.0503,9.4196 5.2173,9.6126 5.3863,9.8396 C5.8533,10.4616 6.0913,11.1886 6.0913,11.9996 C6.0913,12.7726 5.8583,13.4936 5.3993,14.1436 C5.2223,14.3796 5.0523,14.5776 4.8843,14.7426 C4.9283,14.8576 4.9753,14.9736 5.0233,15.0896 C5.0663,15.0886 5.1103,15.0886 5.1563,15.0886 C6.1913,15.0886 7.0853,15.4576 7.8133,16.1866 C8.3893,16.7626 8.7403,17.4476 8.8573,18.2236 C8.8933,18.5106 8.9113,18.7586 8.9113,18.9776 C9.0273,19.0256 9.1423,19.0716 9.2573,19.1156 C9.4203,18.9496 9.6133,18.7836 9.8393,18.6136 C10.5063,18.1416 11.2273,17.9096 12.0003,17.9096 C12.8113,17.9096 13.5383,18.1466 14.1613,18.6136 C14.3873,18.7836 14.5803,18.9496 14.7433,19.1156 C14.8573,19.0716 14.9723,19.0256 15.0883,18.9776 C15.0883,18.7616 15.1053,18.5186 15.1403,18.2416 C15.2593,17.4486 15.6093,16.7626 16.1863,16.1856 C16.9153,15.4576 17.8093,15.0886 18.8433,15.0886 C18.8893,15.0886 18.9343,15.0886 18.9763,15.0896 C19.0253,14.9736 19.0713,14.8586 19.1153,14.7426 C18.9503,14.5806 18.7833,14.3876 18.6133,14.1606 Z M11.9996,8.0002 C13.0996,8.0002 14.0416,8.3912 14.8256,9.1752 C15.6086,9.9582 15.9996,10.9002 15.9996,12.0002 C15.9996,13.1002 15.6086,14.0412 14.8256,14.8252 C14.0416,15.6082 13.0996,16.0002 11.9996,16.0002 C10.8996,16.0002 9.9506,15.6172 9.1496,14.8502 C8.3836,14.0502 7.9996,13.1002 7.9996,12.0002 C7.9996,10.9002 8.3916,9.9582 9.1746,9.1752 C9.9586,8.3912 10.8996,8.0002 11.9996,8.0002 Z"/>
  </defs>
  <g fill="none" fill-rule="evenodd">
    <mask id="gear-b" fill="#fff">
      <use xlink:href="#gear-a"/>
    </mask>
    <use fill="#000" xlink:href="#gear-a"/>
    <g fill="#000" mask="url(#gear-b)">
      <rect width="24" height="24"/>
    </g>
  </g>
</svg>
