<svg xmlns="http://www.w3.org/2000/svg" xmlns:xlink="http://www.w3.org/1999/xlink" width="24" height="24" viewBox="0 0 24 24">
  <defs>
    <path id="chevron-right-a" d="M16.9658,12.1874 C16.9778,12.1244 16.9888,12.0634 16.9888,11.9994 C16.9888,11.9344 16.9778,11.8744 16.9658,11.8104 C16.9538,11.7484 16.9418,11.6884 16.9178,11.6284 C16.8928,11.5664 16.8558,11.5124 16.8188,11.4554 C16.7938,11.4174 16.7828,11.3754 16.7528,11.3404 C16.7368,11.3224 16.7158,11.3154 16.6988,11.2994 C16.6828,11.2834 16.6758,11.2614 16.6588,11.2464 L8.6588,4.2464 C8.2428,3.8834 7.6118,3.9264 7.2478,4.3404 C6.8838,4.7564 6.9258,5.3874 7.3408,5.7514 L14.4818,11.9994 L7.3408,18.2464 C6.9258,18.6104 6.8838,19.2414 7.2478,19.6574 C7.4448,19.8834 7.7218,19.9994 8.0008,19.9994 C8.2338,19.9994 8.4688,19.9174 8.6588,19.7514 L16.6588,12.7514 C16.6768,12.7354 16.6848,12.7124 16.7018,12.6944 C16.7168,12.6794 16.7378,12.6744 16.7528,12.6574 C16.7828,12.6234 16.7938,12.5804 16.8188,12.5424 C16.8558,12.4854 16.8928,12.4314 16.9178,12.3694 C16.9418,12.3094 16.9538,12.2494 16.9658,12.1874"/>
  </defs>
  <g fill="none" fill-rule="evenodd">
    <mask id="chevron-right-b" fill="#fff">
      <use xlink:href="#chevron-right-a"/>
    </mask>
    <use fill="#000" xlink:href="#chevron-right-a"/>
    <g fill="#000" mask="url(#chevron-right-b)">
      <rect width="24" height="24"/>
    </g>
  </g>
</svg>
