<svg xmlns="http://www.w3.org/2000/svg" xmlns:xlink="http://www.w3.org/1999/xlink" width="24" height="24" viewBox="0 0 24 24">
  <defs>
    <path id="apps-a" d="M6,6.5 C5.724,6.5 5.5,6.276 5.5,6 C5.5,5.724 5.724,5.5 6,5.5 C6.276,5.5 6.5,5.724 6.5,6 C6.5,6.276 6.276,6.5 6,6.5 M6,4 C7.104,4 8,4.896 8,6 C8,7.104 7.104,8 6,8 C4.896,8 4,7.104 4,6 C4,4.896 4.896,4 6,4 Z M12,6.5 C12.276,6.5 12.5,6.276 12.5,6 C12.5,5.724 12.276,5.5 12,5.5 C11.724,5.5 11.5,5.724 11.5,6 C11.5,6.276 11.724,6.5 12,6.5 Z M12,4 C13.104,4 14,4.896 14,6 C14,7.104 13.104,8 12,8 C10.896,8 10,7.104 10,6 C10,4.896 10.896,4 12,4 Z M18,5.5 C17.724,5.5 17.5,5.724 17.5,6 C17.5,6.276 17.724,6.5 18,6.5 C18.276,6.5 18.5,6.276 18.5,6 C18.5,5.724 18.276,5.5 18,5.5 Z M18,8 C16.896,8 16,7.104 16,6 C16,4.896 16.896,4 18,4 C19.104,4 20,4.896 20,6 C20,7.104 19.104,8 18,8 Z M6,12.5 C6.276,12.5 6.5,12.276 6.5,12 C6.5,11.724 6.276,11.5 6,11.5 C5.724,11.5 5.5,11.724 5.5,12 C5.5,12.276 5.724,12.5 6,12.5 Z M6,10 C7.104,10 8,10.896 8,12 C8,13.104 7.104,14 6,14 C4.896,14 4,13.104 4,12 C4,10.896 4.896,10 6,10 Z M12,12.5 C12.276,12.5 12.5,12.276 12.5,12 C12.5,11.724 12.276,11.5 12,11.5 C11.724,11.5 11.5,11.724 11.5,12 C11.5,12.276 11.724,12.5 12,12.5 Z M12,10 C13.104,10 14,10.896 14,12 C14,13.104 13.104,14 12,14 C10.896,14 10,13.104 10,12 C10,10.896 10.896,10 12,10 Z M18,12.5 C18.276,12.5 18.5,12.276 18.5,12 C18.5,11.724 18.276,11.5 18,11.5 C17.724,11.5 17.5,11.724 17.5,12 C17.5,12.276 17.724,12.5 18,12.5 Z M18,10 C19.104,10 20,10.896 20,12 C20,13.104 19.104,14 18,14 C16.896,14 16,13.104 16,12 C16,10.896 16.896,10 18,10 Z M6,18.5 C6.276,18.5 6.5,18.276 6.5,18 C6.5,17.724 6.276,17.5 6,17.5 C5.724,17.5 5.5,17.724 5.5,18 C5.5,18.276 5.724,18.5 6,18.5 Z M6,16 C7.104,16 8,16.896 8,18 C8,19.104 7.104,20 6,20 C4.896,20 4,19.104 4,18 C4,16.896 4.896,16 6,16 Z M12,18.5 C12.276,18.5 12.5,18.276 12.5,18 C12.5,17.724 12.276,17.5 12,17.5 C11.724,17.5 11.5,17.724 11.5,18 C11.5,18.276 11.724,18.5 12,18.5 Z M12,16 C13.104,16 14,16.896 14,18 C14,19.104 13.104,20 12,20 C10.896,20 10,19.104 10,18 C10,16.896 10.896,16 12,16 Z M18,18.5 C18.276,18.5 18.5,18.276 18.5,18 C18.5,17.724 18.276,17.5 18,17.5 C17.724,17.5 17.5,17.724 17.5,18 C17.5,18.276 17.724,18.5 18,18.5 Z M18,16 C19.104,16 20,16.896 20,18 C20,19.104 19.104,20 18,20 C16.896,20 16,19.104 16,18 C16,16.896 16.896,16 18,16 Z"/>
  </defs>
  <g fill="none" fill-rule="evenodd">
    <mask id="apps-b" fill="#fff">
      <use xlink:href="#apps-a"/>
    </mask>
    <use fill="#000" xlink:href="#apps-a"/>
    <g fill="#000" mask="url(#apps-b)">
      <rect width="24" height="24"/>
    </g>
  </g>
</svg>
