<svg xmlns="http://www.w3.org/2000/svg" xmlns:xlink="http://www.w3.org/1999/xlink" width="24" height="24" viewBox="0 0 24 24">
  <defs>
    <path id="chevron-top-a" d="M19.7524,14.3413 L12.7524,6.3413 C12.7374,6.3233 12.7154,6.3173 12.6994,6.3003 C12.6834,6.2843 12.6764,6.2623 12.6584,6.2473 C12.6244,6.2173 12.5814,6.2073 12.5444,6.1823 C12.4864,6.1443 12.4314,6.1073 12.3694,6.0823 C12.3104,6.0593 12.2524,6.0473 12.1924,6.0353 C12.1264,6.0223 12.0644,6.0103 11.9974,6.0103 C11.9354,6.0103 11.8774,6.0223 11.8164,6.0333 C11.7524,6.0463 11.6894,6.0583 11.6274,6.0833 C11.5664,6.1083 11.5134,6.1443 11.4584,6.1803 C11.4194,6.2053 11.3764,6.2163 11.3414,6.2473 C11.3234,6.2623 11.3164,6.2843 11.3004,6.3003 C11.2844,6.3173 11.2624,6.3233 11.2474,6.3413 L4.2474,14.3413 C3.8834,14.7573 3.9254,15.3883 4.3414,15.7523 C4.5314,15.9183 4.7664,16.0003 4.9994,16.0003 C5.2774,16.0003 5.5544,15.8843 5.7524,15.6583 L12.0004,8.5183 L18.2474,15.6583 C18.4454,15.8843 18.7224,16.0003 19.0004,16.0003 C19.2334,16.0003 19.4684,15.9183 19.6584,15.7523 C20.0744,15.3883 20.1164,14.7573 19.7524,14.3413"/>
  </defs>
  <g fill="none" fill-rule="evenodd">
    <mask id="chevron-top-b" fill="#fff">
      <use xlink:href="#chevron-top-a"/>
    </mask>
    <use fill="#000" xlink:href="#chevron-top-a"/>
    <g fill="#000" mask="url(#chevron-top-b)">
      <rect width="24" height="24"/>
    </g>
  </g>
</svg>
