<svg xmlns="http://www.w3.org/2000/svg" xmlns:xlink="http://www.w3.org/1999/xlink" width="24" height="24" viewBox="0 0 24 24">
  <defs>
    <path id="id-key-a" d="M11.5,14.5 L11,14.5 C10.724,14.5 10.5,14.276 10.5,14 C10.5,13.724 10.724,13.5 11,13.5 L11.5,13.5 L11.5,11.4498223 C10.3599477,11.2176952 9.5,10.2078068 9.5,9 C9.5,7.621 10.621,6.5 12,6.5 C13.379,6.5 14.5,7.621 14.5,9 C14.5,10.2078068 13.6400523,11.2176952 12.5,11.4498223 L12.5,16 C12.5,16.827 11.827,17.5 11,17.5 C10.724,17.5 10.5,17.276 10.5,17 C10.5,16.724 10.724,16.5 11,16.5 C11.275,16.5 11.5,16.275 11.5,16 L11.5,14.5 Z M12.0029,21.4964 C11.8409,21.4964 11.6779,21.4694 11.5189,21.4174 C9.5359,20.7874 7.8619,19.5204 6.5499,17.6544 C5.2499,15.8174 4.5269,13.5424 4.5169,11.2484 C4.5079,10.4234 4.5089,9.5964 4.5089,8.7684 C4.5089,7.9934 4.5089,7.2174 4.5019,6.4434 C4.4609,6.1284 4.6849,5.7894 5.0369,5.6904 C7.1859,4.6774 9.4109,3.6344 11.6379,2.5884 C11.8629,2.4654 12.1589,2.4674 12.4069,2.5994 C14.5979,3.6414 16.8149,4.6824 19.0359,5.7114 C19.3239,5.8154 19.5279,6.1464 19.4969,6.4954 C19.4859,7.3494 19.4859,8.2044 19.4929,9.0564 L19.4929,11.1374 C19.5029,13.5874 18.7119,15.9974 17.2639,17.9194 C16.0569,19.5984 14.3989,20.8114 12.4759,21.4194 C12.3219,21.4704 12.1629,21.4964 12.0029,21.4964 Z M5.5009,6.5704 C5.5089,7.3324 5.5089,8.0504 5.5089,8.7694 C5.5089,9.5924 5.5079,10.4174 5.5169,11.2414 C5.5259,13.3344 6.1839,15.4054 7.3669,17.0774 C8.5679,18.7864 10.0269,19.8934 11.8279,20.4654 C11.9429,20.5044 12.0579,20.5044 12.1669,20.4674 C13.8899,19.9234 15.3709,18.8374 16.4579,17.3264 C17.7819,15.5684 18.5029,13.3754 18.4929,11.1394 L18.4929,9.0604 C18.4859,8.2314 18.4859,7.3974 18.4959,6.5624 C16.3049,5.5474 14.1549,4.5384 12.0099,3.5174 C9.8249,4.5454 7.6619,5.5584 5.5009,6.5704 Z M12,7.5 C11.173,7.5 10.5,8.173 10.5,9 C10.5,9.827 11.173,10.5 12,10.5 C12.827,10.5 13.5,9.827 13.5,9 C13.5,8.173 12.827,7.5 12,7.5 Z"/>
  </defs>
  <g fill="none" fill-rule="evenodd">
    <mask id="id-key-b" fill="#fff">
      <use xlink:href="#id-key-a"/>
    </mask>
    <use fill="#000" xlink:href="#id-key-a"/>
    <g fill="#000" mask="url(#id-key-b)">
      <rect width="24" height="24"/>
    </g>
  </g>
</svg>
