<svg xmlns="http://www.w3.org/2000/svg" xmlns:xlink="http://www.w3.org/1999/xlink" width="24" height="24" viewBox="0 0 24 24">
  <defs>
    <path id="edit-a" d="M11.9868,13.25 L10.9998,13.25 L10.9998,12.263 L19.2028,4.061 L20.1898,5.047 L11.9868,13.25 Z M21.7798,4.517 C22.0728,4.81 22.0728,5.285 21.7798,5.578 L12.8278,14.53 C12.6868,14.671 12.4958,14.75 12.2978,14.75 L10.2498,14.75 C9.8358,14.75 9.4998,14.414 9.4998,14 L9.4998,11.953 C9.4998,11.754 9.5788,11.563 9.7198,11.422 L18.6728,2.47 C18.9658,2.177 19.4398,2.177 19.7328,2.47 L21.7798,4.517 Z M19.25,11.25 C19.664,11.25 20,11.586 20,12 L20,19.2 C20,20.606 19.036,21.75 17.85,21.75 L6.65,21.75 C5.464,21.75 4.5,20.606 4.5,19.2 L4.5,4.8 C4.5,3.394 5.464,2.25 6.65,2.25 L12.25,2.25 C12.664,2.25 13,2.586 13,3 C13,3.414 12.664,3.75 12.25,3.75 L6.65,3.75 C6.343,3.75 6,4.199 6,4.8 L6,19.2 C6,19.801 6.343,20.25 6.65,20.25 L17.85,20.25 C18.157,20.25 18.5,19.801 18.5,19.2 L18.5,12 C18.5,11.586 18.836,11.25 19.25,11.25 Z"/>
  </defs>
  <g fill="none" fill-rule="evenodd">
    <mask id="edit-b" fill="#fff">
      <use xlink:href="#edit-a"/>
    </mask>
    <use fill="#000" xlink:href="#edit-a"/>
    <g fill="#000" mask="url(#edit-b)">
      <rect width="24" height="24"/>
    </g>
  </g>
</svg>
