<svg xmlns="http://www.w3.org/2000/svg" xmlns:xlink="http://www.w3.org/1999/xlink" width="24" height="24" viewBox="0 0 24 24">
  <defs>
    <path id="search-a" d="M18.9985,19.4307 L14.7505,15.1897 L14.7505,14.7497 L15.1905,14.7497 L19.4305,18.9987 L18.9985,19.4307 Z M9.4995,14.2497 C6.8805,14.2497 4.7495,12.1187 4.7495,9.4997 C4.7495,6.8807 6.8805,4.7497 9.4995,4.7497 C12.1195,4.7497 14.2495,6.8807 14.2495,9.4997 C14.2495,12.1187 12.1195,14.2497 9.4995,14.2497 Z M21.0205,18.4707 L16.0325,13.4707 C15.8925,13.3287 15.7015,13.2497 15.5015,13.2497 L15.0175,13.2497 L14.9605,13.1947 C14.8735,13.1077 14.7695,13.0547 14.6605,13.0197 C15.3465,12.0167 15.7495,10.8047 15.7495,9.4997 C15.7495,6.0537 12.9465,3.2497 9.4995,3.2497 C6.0535,3.2497 3.2495,6.0537 3.2495,9.4997 C3.2495,12.9467 6.0535,15.7497 9.4995,15.7497 C10.8045,15.7497 12.0165,15.3467 13.0195,14.6597 C13.0545,14.7717 13.1075,14.8777 13.1965,14.9657 L13.2505,15.0197 L13.2505,15.4997 C13.2505,15.6997 13.3305,15.8897 13.4715,16.0307 L18.4695,21.0217 C18.6155,21.1677 18.8075,21.2417 18.9985,21.2417 C19.1905,21.2417 19.3825,21.1677 19.5295,21.0217 L21.0205,19.5307 C21.3125,19.2377 21.3135,18.7637 21.0205,18.4707 Z"/>
  </defs>
  <g fill="none" fill-rule="evenodd">
    <mask id="search-b" fill="#fff">
      <use xlink:href="#search-a"/>
    </mask>
    <use fill="#000" xlink:href="#search-a"/>
    <g fill="#000" mask="url(#search-b)">
      <rect width="24" height="24"/>
    </g>
  </g>
</svg>
