<svg xmlns="http://www.w3.org/2000/svg" xmlns:xlink="http://www.w3.org/1999/xlink" width="24" height="24" viewBox="0 0 24 24">
  <defs>
    <path id="share-a" d="M6,9.75 C5.808,9.75 5.616,9.677 5.47,9.53 C5.177,9.237 5.177,8.763 5.47,8.47 L11.47,2.47 C11.539,2.4 11.622,2.346 11.713,2.308 C11.896,2.232 12.104,2.232 12.287,2.308 C12.378,2.346 12.461,2.4 12.53,2.47 L18.53,8.47 C18.823,8.763 18.823,9.237 18.53,9.53 C18.384,9.677 18.192,9.75 18,9.75 C17.808,9.75 17.616,9.677 17.47,9.53 L12.75,4.811 L12.75,16 C12.75,16.414 12.414,16.75 12,16.75 C11.586,16.75 11.25,16.414 11.25,16 L11.25,4.811 L6.53,9.53 C6.384,9.677 6.192,9.75 6,9.75 Z M21,12.25 C21.414,12.25 21.75,12.586 21.75,13 L21.75,18 C21.75,20.067 20.202,21.75 18.3,21.75 L5.7,21.75 C3.798,21.75 2.25,20.067 2.25,18 L2.25,13 C2.25,12.586 2.586,12.25 3,12.25 C3.414,12.25 3.75,12.586 3.75,13 L3.75,18 C3.75,19.24 4.625,20.25 5.7,20.25 L18.3,20.25 C19.375,20.25 20.25,19.24 20.25,18 L20.25,13 C20.25,12.586 20.586,12.25 21,12.25 Z"/>
  </defs>
  <g fill="none" fill-rule="evenodd">
    <mask id="share-b" fill="#fff">
      <use xlink:href="#share-a"/>
    </mask>
    <use fill="#000" xlink:href="#share-a"/>
    <g fill="#000" fill-opacity="0" mask="url(#share-b)">
      <rect width="24" height="24" fill="none"/>
    </g>
  </g>
</svg>
