<svg xmlns="http://www.w3.org/2000/svg" xmlns:xlink="http://www.w3.org/1999/xlink" width="24" height="24" viewBox="0 0 24 24">
  <defs>
    <path id="scan-a" d="M20,14.25 C20.414,14.25 20.75,14.586 20.75,15 L20.75,17.172 C20.75,19.145 19.145,20.75 17.172,20.75 L6.828,20.75 C4.855,20.75 3.25,19.145 3.25,17.172 L3.25,15 C3.25,14.586 3.586,14.25 4,14.25 C4.414,14.25 4.75,14.586 4.75,15 L4.75,17.172 C4.75,18.317 5.683,19.25 6.828,19.25 L17.172,19.25 C18.317,19.25 19.25,18.317 19.25,17.172 L19.25,15 C19.25,14.586 19.586,14.25 20,14.25 Z M4,9.75 C3.586,9.75 3.25,9.414 3.25,9 L3.25,6.828 C3.25,4.855 4.855,3.25 6.828,3.25 L17.172,3.25 C19.145,3.25 20.75,4.855 20.75,6.828 L20.75,9 C20.75,9.414 20.414,9.75 20,9.75 C19.586,9.75 19.25,9.414 19.25,9 L19.25,6.828 C19.25,5.683 18.317,4.75 17.172,4.75 L6.828,4.75 C5.683,4.75 4.75,5.683 4.75,6.828 L4.75,9 C4.75,9.414 4.414,9.75 4,9.75 Z M21,11.25 C21.414,11.25 21.75,11.586 21.75,12 C21.75,12.414 21.414,12.75 21,12.75 L3,12.75 C2.586,12.75 2.25,12.414 2.25,12 C2.25,11.586 2.586,11.25 3,11.25 L21,11.25 Z"/>
  </defs>
  <g fill="none" fill-rule="evenodd">
    <mask id="scan-b" fill="#fff">
      <use xlink:href="#scan-a"/>
    </mask>
    <use fill="#000" xlink:href="#scan-a"/>
    <g fill="#000" fill-opacity="0" mask="url(#scan-b)">
      <rect width="24" height="24" fill="none"/>
    </g>
  </g>
</svg>
