<svg xmlns="http://www.w3.org/2000/svg" xmlns:xlink="http://www.w3.org/1999/xlink" width="24" height="24" viewBox="0 0 24 24">
  <defs>
    <path id="owner-a" d="M4.5,15.332 L12,21.358 L19.5,15.332 L19.5,13.871 C18.816,13.704 18.045,13.111 18.045,11.286 C18.045,9.899 18.461,7.949 19.313,5.339 C16.676,5.198 14.107,4.251 12,2.635 C9.905,4.241 7.355,5.186 4.735,5.336 C5.544,7.419 5.955,9.417 5.955,11.286 C5.955,12.238 5.466,13.051 4.5,13.703 L4.5,15.332 Z M12,22.5 C11.889,22.5 11.778,22.463 11.687,22.39 L3.687,15.961 C3.569,15.866 3.5,15.723 3.5,15.571 L3.5,13.429 C3.5,13.253 3.592,13.091 3.742,13 C4.558,12.51 4.955,11.949 4.955,11.286 C4.955,9.352 4.479,7.255 3.54,5.054 C3.474,4.899 3.49,4.722 3.583,4.582 C3.675,4.441 3.832,4.357 4,4.357 C6.702,4.357 9.366,3.434 11.501,1.756 L11.691,1.607 C11.873,1.465 12.127,1.465 12.309,1.607 L12.499,1.757 C14.635,3.434 17.298,4.357 20,4.357 C20.161,4.357 20.313,4.436 20.406,4.566 C20.5,4.697 20.525,4.865 20.474,5.019 C19.525,7.81 19.045,9.918 19.045,11.286 C19.045,12.929 19.715,12.929 20,12.929 C20.276,12.929 20.5,13.152 20.5,13.429 L20.5,15.571 C20.5,15.723 20.432,15.866 20.313,15.961 L12.313,22.39 C12.222,22.463 12.111,22.5 12,22.5 Z M10.8696,14.5 C10.9946,14.5 11.1206,14.453 11.2176,14.359 L15.3476,10.359 C15.5466,10.167 15.5506,9.851 15.3596,9.652 C15.1676,9.453 14.8496,9.449 14.6526,9.641 L10.8696,13.304 L9.3476,11.83 C9.1486,11.639 8.8336,11.643 8.6406,11.842 C8.4486,12.04 8.4536,12.356 8.6526,12.549 L10.5216,14.359 C10.6186,14.453 10.7446,14.5 10.8696,14.5 Z"/>
  </defs>
  <g fill="none" fill-rule="evenodd">
    <mask id="owner-b" fill="#fff">
      <use xlink:href="#owner-a"/>
    </mask>
    <use fill="#000" xlink:href="#owner-a"/>
    <g fill="#000" mask="url(#owner-b)">
      <rect width="24" height="24"/>
    </g>
  </g>
</svg>
