<svg xmlns="http://www.w3.org/2000/svg" xmlns:xlink="http://www.w3.org/1999/xlink" width="24" height="24" viewBox="0 0 24 24">
  <defs>
    <path id="user-a" d="M15.8770352,6.41956391 C15.4367896,4.74321204 13.865749,3.5 12,3.5 C10.1046558,3.5 8.51344375,4.7829654 8.10287175,6.49966033 C10.6262135,6.4829444 12.3975939,5.85033862 12.737,4.841 C12.809,4.628 13.034,4.478 13.236,4.501 C13.461,4.513 13.649,4.672 13.699,4.891 C13.842,5.527 14.124,5.978 14.537,6.227 C15.051,6.537 15.673,6.474 15.833,6.433 C15.8475306,6.42780098 15.8622256,6.42332614 15.8770352,6.41956391 Z M15.9997713,7.41821833 C15.6280794,7.49557143 14.9609641,7.51505007 14.326,7.24 C13.926,7.067 13.441,6.734 13.086,6.093 C12.1632441,6.99776066 10.3889388,7.49973445 8.00189446,7.49999989 C8.06924865,9.73825847 9.92284414,12.5 12,12.5 C14.1025286,12.5 15.9760018,9.67037632 15.9997713,7.41821833 Z M10.2696615,13.0373424 L9.435,14.498 C9.345,14.654 9.18,14.75 9,14.75 C6.958,14.75 5.167,16.619 5.167,18.75 C5.167,18.798 5.16,18.846 5.146,18.893 L4.67,20.5 L19.33,20.5 L18.854,18.893 C18.84,18.846 18.833,18.798 18.833,18.75 C18.833,16.619 17.042,14.75 15,14.75 C14.82,14.75 14.655,14.654 14.565,14.498 L13.7303385,13.0373424 C13.1872803,13.3308532 12.6032827,13.5 12,13.5 C11.3967173,13.5 10.8127197,13.3308532 10.2696615,13.0373424 Z M9.44070795,12.4698359 C7.99514613,11.2591443 7,9.18534894 7,7.375 C7,4.687 9.243,2.5 12,2.5 C14.757,2.5 17,4.687 17,7.375 C17,9.18534894 16.0048539,11.2591443 14.5592921,12.4698359 L15.296,13.761 C17.722,13.929 19.792,16.146 19.832,18.676 L20.479,20.857 C20.524,21.009 20.495,21.173 20.4,21.299 C20.307,21.426 20.158,21.5 20,21.5 L4,21.5 C3.842,21.5 3.693,21.426 3.6,21.299 C3.505,21.173 3.476,21.009 3.521,20.857 L4.168,18.676 C4.208,16.146 6.278,13.929 8.704,13.761 L9.44070795,12.4698359 Z"/>
  </defs>
  <g fill="none" fill-rule="evenodd">
    <mask id="user-b" fill="#fff">
      <use xlink:href="#user-a"/>
    </mask>
    <use fill="#000" xlink:href="#user-a"/>
    <g fill="#000" mask="url(#user-b)">
      <rect width="24" height="24"/>
    </g>
  </g>
</svg>
