<svg xmlns="http://www.w3.org/2000/svg" width="24" height="24" viewBox="0 0 24 24">
  <g fill="none" fill-rule="evenodd">
    <path fill="#000" d="M12.5,12.5 L12.5,15 C12.5,15.276 12.276,15.5 12,15.5 C11.724,15.5 11.5,15.276 11.5,15 L11.5,12.5 L9,12.5 C8.724,12.5 8.5,12.276 8.5,12 C8.5,11.724 8.724,11.5 9,11.5 L11.5,11.5 L11.5,9 C11.5,8.724 11.724,8.5 12,8.5 C12.276,8.5 12.5,8.724 12.5,9 L12.5,11.5 L15,11.5 C15.276,11.5 15.5,11.724 15.5,12 C15.5,12.276 15.276,12.5 15,12.5 L12.5,12.5 Z M12,22.5 C11.889,22.5 11.778,22.463 11.687,22.39 L3.688,15.961 C3.568,15.866 3.5,15.723 3.5,15.571 L3.5,13.429 C3.5,13.253 3.592,13.091 3.742,13 C4.559,12.51 4.955,11.949 4.955,11.286 C4.955,9.352 4.479,7.255 3.54,5.054 C3.475,4.899 3.49,4.722 3.583,4.582 C3.676,4.441 3.832,4.357 4,4.357 C6.702,4.357 9.365,3.434 11.501,1.756 L11.691,1.607 C11.873,1.465 12.127,1.465 12.309,1.607 L12.499,1.757 C14.634,3.434 17.298,4.357 20,4.357 C20.161,4.357 20.313,4.436 20.406,4.566 C20.5,4.697 20.525,4.865 20.474,5.019 C19.526,7.809 19.046,9.917 19.046,11.286 C19.046,12.929 19.715,12.929 20,12.929 C20.276,12.929 20.5,13.152 20.5,13.429 L20.5,15.571 C20.5,15.723 20.432,15.866 20.313,15.961 L12.312,22.39 C12.222,22.463 12.111,22.5 12,22.5 Z M4.5,15.332 L12,21.358 L19.5,15.332 L19.5,13.871 C18.817,13.704 18.046,13.11 18.046,11.286 C18.046,9.898 18.461,7.949 19.313,5.339 C16.676,5.198 14.107,4.251 12,2.635 C9.905,4.241 7.355,5.186 4.735,5.336 C5.545,7.419 5.955,9.417 5.955,11.286 C5.955,12.238 5.466,13.051 4.5,13.703 L4.5,15.332 Z"/>
    <rect width="24" height="24" fill="none"/>
  </g>
</svg>
