<svg xmlns="http://www.w3.org/2000/svg" xmlns:xlink="http://www.w3.org/1999/xlink" width="24" height="24" viewBox="0 0 24 24">
  <defs>
    <path id="wallet-a" d="M20.625,9.25 L20.625,6.556 C20.625,5.974 20.167,5.5 19.604,5.5 L7.5,5.5 L7.5,18.5 L19.604,18.5 C20.167,18.5 20.625,18.026 20.625,17.444 L20.625,14.75 L14.0005,14.75 C12.3355,14.475 11.5005,13.526 11.5005,12 C11.5005,10.474 12.3355,9.525 13.9165,9.257 C13.9435,9.252 13.9725,9.25 14.0005,9.25 L20.625,9.25 Z M21.625,9.25 L22.0005,9.25 C22.2765,9.25 22.5005,9.474 22.5005,9.75 L22.5005,14.25 C22.5005,14.526 22.2765,14.75 22.0005,14.75 L21.625,14.75 L21.625,17.444 C21.625,18.578 20.718,19.5 19.604,19.5 L4.396,19.5 C3.282,19.5 2.375,18.578 2.375,17.444 L2.375,6.556 C2.375,5.422 3.282,4.5 4.396,4.5 L19.604,4.5 C20.718,4.5 21.625,5.422 21.625,6.556 L21.625,9.25 Z M6.5,5.5 L4.396,5.5 C3.833,5.5 3.375,5.974 3.375,6.556 L3.375,17.444 C3.375,18.026 3.833,18.5 4.396,18.5 L6.5,18.5 L6.5,5.5 Z M14.0435,10.25 C12.9765,10.442 12.5005,10.983 12.5005,12 C12.5005,13.029 12.9885,13.571 14.0845,13.757 L21.5005,13.75 L21.5005,10.25 L14.0435,10.25 Z M15.25,12.5 L14.75,12.5 C14.474,12.5 14.25,12.276 14.25,12 C14.25,11.724 14.474,11.5 14.75,11.5 L15.25,11.5 C15.526,11.5 15.75,11.724 15.75,12 C15.75,12.276 15.526,12.5 15.25,12.5 Z"/>
  </defs>
  <g fill="none" fill-rule="evenodd">
    <mask id="wallet-b" fill="#fff">
      <use xlink:href="#wallet-a"/>
    </mask>
    <use fill="#000" xlink:href="#wallet-a"/>
    <g fill="#000" mask="url(#wallet-b)">
      <rect width="24" height="24"/>
    </g>
  </g>
</svg>
