<svg xmlns="http://www.w3.org/2000/svg" xmlns:xlink="http://www.w3.org/1999/xlink" width="24" height="24" viewBox="0 0 24 24">
  <defs>
    <path id="id-recovery-a" d="M15.4259223,16 L16.812,17.109 C17.028,17.282 17.062,17.597 16.891,17.813 C16.792,17.936 16.646,18 16.5,18 C16.39,18 16.28,17.964 16.188,17.891 L13.687,15.891 C13.569,15.796 13.5,15.652 13.5,15.5 C13.5,15.348 13.569,15.204 13.687,15.109 L16.188,13.109 C16.405,12.938 16.719,12.974 16.891,13.188 C17.062,13.403 17.028,13.718 16.812,13.891 L15.4259223,15 L16.7,15 C17.969,15 19,16.031 19,17.3 L19,18.5 C19,18.776 18.776,19 18.5,19 C18.224,19 18,18.776 18,18.5 L18,17.3 C18,16.583 17.417,16 16.7,16 L15.4259223,16 Z M12.2608715,20 C11.4736504,19.0482941 11,17.8282675 11,16.5 C11,15.1522257 11.4876645,13.9158949 12.295757,12.9582442 C12.0161846,12.8574147 11.7181607,12.807 11.408,12.807 C11.286,12.807 11.168,12.762 11.076,12.681 L10.168,11.874 C10.1358129,11.8452503 10.1081667,11.8132781 10.08513,11.7790064 C9.7402986,11.9211009 9.37638045,12 9,12 C8.57999442,12 8.17550751,11.901751 7.79574445,11.7270746 C7.77575117,11.7664411 7.75018697,11.8037949 7.719,11.838 L6.619,13.038 C6.524,13.142 6.391,13.2 6.25,13.2 C4.841,13.2 4,14.212 4,15.905 L4.812,20 L12.2608715,20 Z M13.3415291,21 L4.401,21 C4.162,21 3.957,20.831 3.911,20.597 L3.01,16.002 C3,13.745 4.179,12.314 6.024,12.207 L6.95576096,11.1884956 C5.78294779,10.2072781 5,8.50050409 5,7 C5,4.794 6.794,3 9,3 C11.206,3 13,4.794 13,7 C13,8.53180052 12.1840513,10.2785651 10.9703487,11.2489368 L11.604,11.812 C11.975,11.831 12.334,11.904 12.675,12.031 C12.806231,12.0801483 12.9043441,12.1783317 12.9568516,12.2969325 C13.9146962,11.4881374 15.1515723,11 16.5,11 C19.532,11 22,13.468 22,16.5 C22,19.532 19.532,22 16.5,22 C15.3257037,22 14.2360086,21.6297951 13.3415291,21 Z M9,4 C7.346,4 6,5.346 6,7 C6,8.746 7.455,11 9,11 C10.545,11 12,8.746 12,7 C12,5.346 10.654,4 9,4 Z M16.5,12 C14.019,12 12,14.019 12,16.5 C12,18.981 14.019,21 16.5,21 C18.981,21 21,18.981 21,16.5 C21,14.019 18.981,12 16.5,12 Z"/>
  </defs>
  <g fill="none" fill-rule="evenodd">
    <mask id="id-recovery-b" fill="#fff">
      <use xlink:href="#id-recovery-a"/>
    </mask>
    <use fill="#417505" xlink:href="#id-recovery-a"/>
    <g fill="#000" mask="url(#id-recovery-b)">
      <rect width="24" height="24"/>
    </g>
  </g>
</svg>
