<svg xmlns="http://www.w3.org/2000/svg" xmlns:xlink="http://www.w3.org/1999/xlink" width="24" height="24" viewBox="0 0 24 24">
  <defs>
    <path id="lock-a" d="M7.5,10.5 C6.673,10.5 6,11.132 6,11.908 L6,18.586 C6,19.362 6.673,19.993 7.5,19.993 L16.5,19.993 C17.327,19.993 18,19.362 18,18.586 L18,11.908 C18,11.132 17.327,10.5 16.5,10.5 L7.5,10.5 Z M8,9.5 L8,7.333 C8.182,5.13 9.901,3.5 12,3.5 C14.109,3.5 15.866,5.17 15.999,7.302 L15.9998147,9.5 L16.5,9.5 C17.878,9.5 19,10.58 19,11.908 L19,18.586 C19,19.913 17.878,20.993 16.5,20.993 L7.5,20.993 C6.122,20.993 5,19.913 5,18.586 L5,11.908 C5,10.58 6.122,9.5 7.5,9.5 L8,9.5 Z M8.99961905,9.5 L15,9.5 L15,7.333 C14.9,5.758 13.583,4.5 12,4.5 C10.426,4.5 9.135,5.735 8.998,7.375 L8.99961905,9.5 Z M12,17.5005 C12.827,17.5005 13.5,16.8805 13.5,16.1205 L13.5,14.3605 C13.5,13.5995 12.827,12.9805 12,12.9805 C11.173,12.9805 10.5,13.5995 10.5,14.3605 L10.5,16.1205 C10.5,16.8805 11.173,17.5005 12,17.5005 Z M12,13.9805 C12.271,13.9805 12.5,14.1545 12.5,14.3605 L12.5,16.1205 C12.5,16.3265 12.271,16.5005 12,16.5005 C11.729,16.5005 11.5,16.3265 11.5,16.1205 L11.5,14.3605 C11.5,14.1545 11.729,13.9805 12,13.9805 Z"/>
  </defs>
  <g fill="none" fill-rule="evenodd">
    <mask id="lock-b" fill="#fff">
      <use xlink:href="#lock-a"/>
    </mask>
    <use fill="#000" xlink:href="#lock-a"/>
    <g fill="#000" mask="url(#lock-b)">
      <rect width="24" height="24"/>
    </g>
  </g>
</svg>
