<svg xmlns="http://www.w3.org/2000/svg" xmlns:xlink="http://www.w3.org/1999/xlink" width="24" height="24" viewBox="0 0 24 24">
  <defs>
    <path id="gear-light-a" d="M12,8 C10.9,8 9.958,8.392 9.175,9.175 C8.392,9.958 8,10.9 8,12 C8,13.1 8.384,14.05 9.15,14.85 C9.95,15.616 10.9,16 12,16 C13.1,16 14.042,15.608 14.825,14.825 C15.608,14.042 16,13.1 16,12 C16,10.9 15.608,9.958 14.825,9.175 C14.042,8.392 13.1,8 12,8 M14.4972,20.4996 C14.3282,20.4996 14.1662,20.4136 14.0732,20.2646 C13.9522,20.0716 13.7292,19.8526 13.4112,19.6146 C12.6142,19.0156 11.4822,18.9826 10.5772,19.6216 C10.2702,19.8526 10.0482,20.0716 9.9272,20.2646 C9.8052,20.4606 9.5622,20.5496 9.3452,20.4746 C8.8662,20.3146 8.3812,20.1206 7.9042,19.8986 C7.6862,19.7966 7.5712,19.5556 7.6312,19.3226 C7.6572,19.2186 7.6902,18.9596 7.6192,18.3976 C7.5442,17.8956 7.3182,17.4576 6.9292,17.0706 C6.4362,16.5776 5.8562,16.3376 5.1562,16.3376 C4.8372,16.3376 4.7152,16.3606 4.6772,16.3696 C4.4412,16.4316 4.2032,16.3136 4.1012,16.0956 C3.8792,15.6196 3.6852,15.1336 3.5252,14.6556 C3.4522,14.4356 3.5392,14.1956 3.7352,14.0736 C3.9292,13.9526 4.1472,13.7296 4.3862,13.4116 C4.6892,12.9816 4.8412,12.5156 4.8412,11.9996 C4.8412,11.4576 4.6922,10.9966 4.3862,10.5886 C4.1472,10.2706 3.9292,10.0476 3.7352,9.9266 C3.5392,9.8046 3.4522,9.5646 3.5252,9.3446 C3.6852,8.8666 3.8792,8.3806 4.1012,7.9046 C4.2032,7.6866 4.4412,7.5696 4.6772,7.6306 C4.7152,7.6396 4.8372,7.6626 5.1562,7.6626 C5.8562,7.6626 6.4362,7.4226 6.9292,6.9296 C7.3182,6.5416 7.5442,6.1046 7.6212,5.5916 C7.6902,5.0396 7.6572,4.7816 7.6312,4.6776 C7.5712,4.4446 7.6862,4.2036 7.9042,4.1016 C8.3812,3.8786 8.8662,3.6856 9.3452,3.5256 C9.5622,3.4536 9.8042,3.5386 9.9272,3.7356 C10.0482,3.9286 10.2702,4.1476 10.5892,4.3856 C11.4702,5.0086 12.6142,4.9846 13.4112,4.3856 C13.7292,4.1476 13.9522,3.9286 14.0732,3.7356 C14.1952,3.5396 14.4392,3.4536 14.6552,3.5256 C15.1342,3.6856 15.6192,3.8786 16.0952,4.1016 C16.3132,4.2036 16.4292,4.4446 16.3692,4.6776 C16.3432,4.7816 16.3092,5.0396 16.3812,5.6026 C16.4562,6.1046 16.6812,6.5416 17.0702,6.9296 C17.5632,7.4226 18.1432,7.6626 18.8442,7.6626 C19.1632,7.6626 19.2852,7.6396 19.3232,7.6306 C19.5592,7.5706 19.7972,7.6866 19.8982,7.9046 C20.1212,8.3806 20.3142,8.8666 20.4742,9.3446 C20.5482,9.5646 20.4612,9.8046 20.2642,9.9266 C20.0712,10.0476 19.8522,10.2706 19.6142,10.5886 C19.3072,10.9966 19.1592,11.4576 19.1592,11.9996 C19.1592,12.5156 19.3102,12.9816 19.6222,13.4226 C19.8522,13.7296 20.0712,13.9526 20.2642,14.0736 C20.4612,14.1956 20.5482,14.4356 20.4742,14.6556 C20.3142,15.1336 20.1212,15.6196 19.8982,16.0956 C19.7972,16.3136 19.5592,16.4316 19.3232,16.3696 C19.2852,16.3606 19.1632,16.3376 18.8442,16.3376 C18.1432,16.3376 17.5632,16.5776 17.0702,17.0706 C16.6812,17.4576 16.4562,17.8956 16.3792,18.4086 C16.3092,18.9596 16.3432,19.2186 16.3692,19.3226 C16.4292,19.5556 16.3132,19.7966 16.0952,19.8986 C15.6192,20.1206 15.1342,20.3146 14.6552,20.4746 C14.6032,20.4926 14.5502,20.4996 14.4972,20.4996 Z M8.6582,19.1416 C8.8812,19.2376 9.1032,19.3276 9.3262,19.4086 C9.4982,19.2136 9.7182,19.0166 9.9892,18.8136 C11.2602,17.9176 12.8832,17.9686 14.0112,18.8136 C14.2822,19.0166 14.5022,19.2136 14.6742,19.4086 C14.8962,19.3276 15.1192,19.2376 15.3422,19.1416 C15.3302,18.8976 15.3452,18.6096 15.3882,18.2726 C15.4982,17.5386 15.8252,16.9006 16.3632,16.3636 C17.0442,15.6826 17.8782,15.3376 18.8442,15.3376 C18.9532,15.3376 19.0512,15.3396 19.1392,15.3446 C19.2362,15.1206 19.3262,14.8976 19.4082,14.6736 C19.2142,14.5016 19.0162,14.2826 18.8132,14.0106 C18.3772,13.3916 18.1592,12.7186 18.1592,11.9996 C18.1592,11.2446 18.3802,10.5676 18.8132,9.9896 C19.0162,9.7176 19.2142,9.4976 19.4082,9.3266 C19.3262,9.1026 19.2362,8.8786 19.1392,8.6556 C19.0512,8.6606 18.9532,8.6626 18.8442,8.6626 C17.8782,8.6626 17.0442,8.3176 16.3632,7.6366 C15.8252,7.0996 15.4982,6.4606 15.3902,5.7386 C15.3462,5.3946 15.3302,5.1036 15.3422,4.8586 C15.1192,4.7626 14.8962,4.6726 14.6742,4.5916 C14.5022,4.7866 14.2822,4.9836 14.0112,5.1866 C12.8832,6.0326 11.2472,6.0746 10.0012,5.1946 C9.7212,4.9866 9.4992,4.7876 9.3262,4.5916 C9.1032,4.6726 8.8812,4.7626 8.6582,4.8586 C8.6702,5.1026 8.6542,5.3906 8.6112,5.7276 C8.5022,6.4606 8.1752,7.0996 7.6372,7.6366 C6.9562,8.3176 6.1222,8.6626 5.1562,8.6626 C5.0472,8.6626 4.9492,8.6606 4.8602,8.6556 C4.7632,8.8786 4.6742,9.1026 4.5922,9.3266 C4.7862,9.4976 4.9832,9.7176 5.1862,9.9896 C5.6202,10.5676 5.8412,11.2446 5.8412,11.9996 C5.8412,12.7186 5.6232,13.3916 5.1942,13.9986 C4.9862,14.2786 4.7872,14.5006 4.5922,14.6736 C4.6742,14.8976 4.7632,15.1206 4.8602,15.3446 C4.9492,15.3396 5.0472,15.3376 5.1562,15.3376 C6.1222,15.3376 6.9562,15.6826 7.6372,16.3636 C8.1752,16.9006 8.5022,17.5386 8.6092,18.2616 C8.6532,18.6056 8.6702,18.8966 8.6582,19.1416 Z M12,9 C12.832,9 13.524,9.288 14.118,9.882 C14.712,10.476 15,11.168 15,12 C15,12.832 14.712,13.524 14.118,14.118 C13.524,14.712 12.832,15 12,15 C11.16,15 10.454,14.715 9.872,14.158 C9.285,13.546 9,12.84 9,12 C9,11.168 9.288,10.476 9.882,9.882 C10.476,9.288 11.168,9 12,9 Z"/>
  </defs>
  <g fill="none" fill-rule="evenodd">
    <mask id="gear-light-b" fill="#fff">
      <use xlink:href="#gear-light-a"/>
    </mask>
    <use fill="#000" xlink:href="#gear-light-a"/>
    <g fill="#000" mask="url(#gear-light-b)">
      <rect width="24" height="24"/>
    </g>
  </g>
</svg>
