<svg xmlns="http://www.w3.org/2000/svg" xmlns:xlink="http://www.w3.org/1999/xlink" width="24" height="24" viewBox="0 0 24 24">
  <defs>
    <path id="close-a" d="M13.4141,12 L18.7071,6.707 C19.0981,6.316 19.0981,5.684 18.7071,5.293 C18.3161,4.902 17.6841,4.902 17.2931,5.293 L12.0001,10.586 L6.7071,5.293 C6.3161,4.902 5.6841,4.902 5.2931,5.293 C4.9021,5.684 4.9021,6.316 5.2931,6.707 L10.5861,12 L5.2931,17.293 C4.9021,17.684 4.9021,18.316 5.2931,18.707 C5.4881,18.902 5.7441,19 6.0001,19 C6.2561,19 6.5121,18.902 6.7071,18.707 L12.0001,13.414 L17.2931,18.707 C17.4881,18.902 17.7441,19 18.0001,19 C18.2561,19 18.5121,18.902 18.7071,18.707 C19.0981,18.316 19.0981,17.684 18.7071,17.293 L13.4141,12 Z"/>
  </defs>
  <g fill="none" fill-rule="evenodd">
    <mask id="close-b" fill="#fff">
      <use xlink:href="#close-a"/>
    </mask>
    <use fill="#000" xlink:href="#close-a"/>
    <g fill="#000" mask="url(#close-b)">
      <rect width="24" height="24"/>
    </g>
  </g>
</svg>
