<svg xmlns="http://www.w3.org/2000/svg" xmlns:xlink="http://www.w3.org/1999/xlink" width="24" height="24" viewBox="0 0 24 24">
  <defs>
    <path id="edit-light-a" d="M11.8403,13.5 L10.5003,13.5 L10.5003,12.16 L18.9523,3.707 L20.2933,5.047 L11.8403,13.5 Z M21.3533,4.693 C21.4473,4.787 21.5003,4.914 21.5003,5.047 C21.5003,5.18 21.4473,5.307 21.3533,5.4 L12.4013,14.354 C12.3073,14.447 12.1803,14.5 12.0473,14.5 L10.0003,14.5 C9.7233,14.5 9.5003,14.276 9.5003,14 L9.5003,11.953 C9.5003,11.82 9.5523,11.693 9.6463,11.6 L18.5993,2.646 C18.7943,2.451 19.1113,2.451 19.3063,2.646 L21.3533,4.693 Z M19,11.5 C19.276,11.5 19.5,11.724 19.5,12 L19.5,19.2 C19.5,20.469 18.648,21.5 17.6,21.5 L6.4,21.5 C5.352,21.5 4.5,20.469 4.5,19.2 L4.5,4.8 C4.5,3.531 5.352,2.5 6.4,2.5 L12,2.5 C12.276,2.5 12.5,2.724 12.5,3 C12.5,3.276 12.276,3.5 12,3.5 L6.4,3.5 C5.912,3.5 5.5,4.096 5.5,4.8 L5.5,19.2 C5.5,19.904 5.912,20.5 6.4,20.5 L17.6,20.5 C18.088,20.5 18.5,19.904 18.5,19.2 L18.5,12 C18.5,11.724 18.724,11.5 19,11.5 Z"/>
  </defs>
  <g fill="none" fill-rule="evenodd">
    <mask id="edit-light-b" fill="#fff">
      <use xlink:href="#edit-light-a"/>
    </mask>
    <use fill="#000" xlink:href="#edit-light-a"/>
    <g fill="#000" mask="url(#edit-light-b)">
      <rect width="24" height="24"/>
    </g>
  </g>
</svg>
