<svg xmlns="http://www.w3.org/2000/svg" xmlns:xlink="http://www.w3.org/1999/xlink" width="24" height="24" viewBox="0 0 24 24">
  <defs>
    <path id="wallet-round-a" d="M7,9.2316883 L7,16 C7,16.275 7.224,16.5 7.5,16.5 L17.5,16.5 C17.775,16.5 18,16.275 18,16 L18,14.75 L16,14.75 C15.035,14.75 14.25,13.965 14.25,13 C14.25,12.035 15.035,11.25 16,11.25 L18,11.25 L18,10 C18,9.725 17.775,9.5 17.5,9.5 L10.0000003,9.5 L8,9.5 C7.63594293,9.5 7.29432754,9.4022807 7,9.2316883 Z M6,7.5 C6,6.397 6.897,5.5 8,5.5 L10,5.5 L14,5.5 C14.827,5.5 15.5,6.173 15.5,7 L15.5,7.5 C15.5,7.776 15.276,8 15,8 C14.724,8 14.5,7.776 14.5,7.5 L14.5,7 C14.5,6.725 14.275,6.5 14,6.5 L10,6.5 L8,6.5 C7.449,6.5 7,6.948 7,7.5 C7,8.052 7.449,8.5 8,8.5 L10,8.5 L17.5,8.5 C18.327,8.5 19,9.173 19,10 L19,16 C19,16.827 18.327,17.5 17.5,17.5 L7.5,17.5 C6.673,17.5 6,16.827 6,16 L6,7.5 Z M18,13.75 L18,12.25 L16,12.25 C15.587,12.25 15.25,12.587 15.25,13 C15.25,13.413 15.587,13.75 16,13.75 L18,13.75 Z M12,2 C17.522,2 22,6.478 22,12 C22,17.522 17.522,22 12,22 C6.477,22 2,17.522 2,12 C2,6.478 6.477,2 12,2 Z M12,3 C7.038,3 3,7.037 3,12 C3,16.963 7.038,21 12,21 C16.963,21 21,16.963 21,12 C21,7.037 16.963,3 12,3 Z"/>
  </defs>
  <g fill="none" fill-rule="evenodd">
    <mask id="wallet-round-b" fill="#fff">
      <use xlink:href="#wallet-round-a"/>
    </mask>
    <use fill="#000" xlink:href="#wallet-round-a"/>
    <g fill="#000" mask="url(#wallet-round-b)">
      <rect width="24" height="24"/>
    </g>
  </g>
</svg>
