<svg xmlns="http://www.w3.org/2000/svg" xmlns:xlink="http://www.w3.org/1999/xlink" width="24" height="24" viewBox="0 0 24 24">
  <defs>
    <path id="local-offer-a" d="M7.5,8.2109 C7.109,8.2109 6.791,7.8919 6.791,7.4999 C6.791,7.1079 7.109,6.7889 7.5,6.7889 C7.892,6.7889 8.21,7.1079 8.21,7.4999 C8.21,7.8919 7.892,8.2109 7.5,8.2109 M21.0306,11.0731 C21.5186,11.5561 21.7896,12.2071 21.7896,12.9031 C21.7896,13.5971 21.5186,14.2481 21.0276,14.7371 L14.7346,21.0321 C14.2456,21.5201 13.5956,21.7891 12.9036,21.7891 C12.2116,21.7891 11.5606,21.5191 11.0716,21.0291 L2.9706,12.9321 C2.4796,12.4381 2.2106,11.7891 2.2106,11.0991 L2.2106,5.0041 C2.2106,3.4641 3.4636,2.2111 5.0036,2.2111 L11.0996,2.2111 C11.7876,2.2111 12.4366,2.4781 12.9286,2.9651 L21.0306,11.0731 Z M19.9126,13.6191 C20.1046,13.4281 20.2106,13.1741 20.2106,12.9031 C20.2106,12.6331 20.1056,12.3801 19.9166,12.1921 L11.8146,4.0841 C11.6236,3.8951 11.3686,3.7891 11.0996,3.7891 L5.0036,3.7891 C4.3346,3.7891 3.7896,4.3341 3.7896,5.0041 L3.7896,11.0991 C3.7896,11.3681 3.8956,11.6231 4.0876,11.8161 L12.1886,19.9131 C12.5716,20.2981 13.2376,20.2961 13.6186,19.9151 L19.9126,13.6191 Z M7.5,5.2109 C8.762,5.2109 9.79,6.2369 9.79,7.4999 C9.79,8.7629 8.762,9.7889 7.5,9.7889 C6.238,9.7889 5.211,8.7629 5.211,7.4999 C5.211,6.2369 6.238,5.2109 7.5,5.2109 Z"/>
  </defs>
  <g fill="none" fill-rule="evenodd">
    <mask id="local-offer-b" fill="#fff">
      <use xlink:href="#local-offer-a"/>
    </mask>
    <use fill="#000" xlink:href="#local-offer-a"/>
    <g fill="#000" mask="url(#local-offer-b)">
      <rect width="24" height="24"/>
    </g>
  </g>
</svg>
