<svg xmlns="http://www.w3.org/2000/svg" xmlns:xlink="http://www.w3.org/1999/xlink" width="24" height="24" viewBox="0 0 24 24">
  <defs>
    <path id="user-name-a" d="M11.9985989,16.4999981 C11.9460833,16.4998583 11.8945329,16.4918502 11.842,16.475 L8.842,15.475 C8.58,15.387 8.438,15.104 8.525,14.842 C8.614,14.58 8.897,14.44 9.158,14.525 L12,15.4723333 L14.842,14.525 C15.105,14.439 15.387,14.58 15.475,14.842 C15.562,15.104 15.42,15.387 15.158,15.475 L12.158,16.475 C12.1171854,16.4880915 12.0769638,16.4958457 12.0364219,16.4987192 C12.0243399,16.4995473 12.0121938,16.5 12,16.5 C11.9995329,16.5 11.9990658,16.4999993 11.9985989,16.499998 Z M12,20.4995 C7.864,20.4995 4.5,17.1355 4.5,12.9995 L4.5,8.2545 C4.5,8.1385 4.54,8.0265 4.614,7.9375 C9.456,2.0485 14.544,2.0485 19.386,7.9375 C19.46,8.0265 19.5,8.1385 19.5,8.2545 L19.5,12.9995 C19.5,17.1355 16.136,20.4995 12,20.4995 Z M5.5,8.4355 L5.5,12.9995 C5.5,16.5835 8.416,19.4995 12,19.4995 C15.584,19.4995 18.5,16.5835 18.5,12.9995 L18.5,8.4355 C14.131,3.2125 9.869,3.2125 5.5,8.4355 Z M10,11.5 L9,11.5 C8.724,11.5 8.5,11.276 8.5,11 C8.5,10.724 8.724,10.5 9,10.5 L10,10.5 C10.276,10.5 10.5,10.724 10.5,11 C10.5,11.276 10.276,11.5 10,11.5 Z M15,11.5 L14,11.5 C13.724,11.5 13.5,11.276 13.5,11 C13.5,10.724 13.724,10.5 14,10.5 L15,10.5 C15.276,10.5 15.5,10.724 15.5,11 C15.5,11.276 15.276,11.5 15,11.5 Z"/>
  </defs>
  <g fill="none" fill-rule="evenodd">
    <mask id="user-name-b" fill="#fff">
      <use xlink:href="#user-name-a"/>
    </mask>
    <use fill="#000" xlink:href="#user-name-a"/>
    <g fill="#000" mask="url(#user-name-b)">
      <rect width="24" height="24"/>
    </g>
  </g>
</svg>
