<svg xmlns="http://www.w3.org/2000/svg" xmlns:xlink="http://www.w3.org/1999/xlink" width="24" height="24" viewBox="0 0 24 24">
  <defs>
    <path id="delete-a" d="M16.999,17.751 C16.999,18.44 16.438,19.001 15.749,19.001 L7.75,19.001 C7.061,19.001 6.499,18.44 6.499,17.751 L6.499,8.501 L16.999,8.501 L16.999,17.751 Z M5.5,5.75 C5.5,5.613 5.611,5.501 5.749,5.501 L8.25,5.501 C8.449,5.501 8.641,5.422 8.781,5.281 L9.561,4.5 L13.938,4.5 L14.72,5.281 C14.86,5.422 15.051,5.501 15.25,5.501 L17.749,5.501 C17.888,5.501 18,5.613 18,5.75 L18,7.001 L17.749,7.001 L5.749,7.001 L5.5,7.001 L5.5,5.75 Z M17.749,4.001 L15.561,4.001 L14.779,3.22 C14.639,3.079 14.448,3 14.249,3 L9.249,3 C9.05,3 8.858,3.079 8.718,3.22 L7.938,4.001 L5.749,4.001 C4.784,4.001 4,4.786 4,5.75 L4,7.751 C4,8.165 4.336,8.501 4.75,8.501 L4.999,8.501 L4.999,17.751 C4.999,19.268 6.233,20.501 7.75,20.501 L15.749,20.501 C17.266,20.501 18.499,19.268 18.499,17.751 L18.499,8.501 L18.75,8.501 C19.164,8.501 19.5,8.165 19.5,7.751 L19.5,5.75 C19.5,4.786 18.715,4.001 17.749,4.001 Z"/>
  </defs>
  <g fill="none" fill-rule="evenodd">
    <mask id="delete-b" fill="#fff">
      <use xlink:href="#delete-a"/>
    </mask>
    <use fill="#000" xlink:href="#delete-a"/>
    <g fill="#000" mask="url(#delete-b)">
      <rect width="24" height="24"/>
    </g>
  </g>
</svg>
